<?xml version="1.0" standalone="no"?><!DOCTYPE svg PUBLIC "-//W3C//DTD SVG 1.1//EN" "http://www.w3.org/Graphics/SVG/1.1/DTD/svg11.dtd"><svg t="1623315859253" class="icon" viewBox="0 0 1024 1024" version="1.1" xmlns="http://www.w3.org/2000/svg" p-id="3130" data-spm-anchor-id="a313x.7781069.0.i2" xmlns:xlink="http://www.w3.org/1999/xlink" width="200" height="200"><defs><style type="text/css"></style></defs><path d="M0.0512 515.2768c15.5136-12.288 31.0784-24.576 46.592-36.864l48.7936-38.656c4.5568-3.6352 8.9088-7.4752 13.568-10.9056 1.0752-0.768 3.6864-0.8192 4.6592-0.0512 15.4624 12.1344 30.72 24.4736 46.08 36.7104 16.2304 12.9024 32.5632 25.7536 48.7424 38.7072 14.1824 11.3152 28.2112 22.8352 42.3936 34.2016 14.2848 11.4688 28.7232 22.7328 43.0592 34.1504 14.1824 11.3152 28.2624 22.784 42.3936 34.1504 6.4 5.1712 12.8512 10.2912 19.6608 15.7184 6.7584-7.5776 13.6192-15.2064 20.4288-22.9888 6.912-7.8848 13.568-16.0768 20.6336-23.8592 13.9776-15.36 28.16-30.5152 42.2912-45.7728 9.728-10.5472 19.3024-21.248 29.3376-31.5392 23.296-23.9616 46.7456-47.7696 70.3488-71.4752 11.1104-11.1616 22.4768-22.016 33.9456-32.8192 15.5136-14.6432 31.1296-29.184 46.9504-43.52 17.152-15.5648 34.3552-31.0272 51.9168-46.1312 21.6064-18.5856 43.264-37.1712 65.4336-55.0912 23.808-19.2512 47.9744-38.144 72.448-56.5248 29.0816-21.8624 58.2144-43.5712 88.064-64.3584 31.6416-22.016 64.0512-42.8544 96.1024-64.256 0.7168-0.512 1.1776-1.3824 1.792-2.048h3.4304c2.3552 6.2464 4.4544 12.5952 7.0656 18.688 6.2464 14.6944 12.8 29.2864 17.8688 40.96-7.1168 8.5504-13.056 16.4864-19.8144 23.5008-9.8816 10.24-20.5312 19.6608-30.5664 29.696-13.0048 13.0048-25.8048 26.2144-38.4512 39.5776-14.3872 15.2064-28.7232 30.5664-42.7008 46.1312-16.3328 18.176-32.5632 36.4544-48.2816 55.1936-20.8384 24.832-41.4208 49.8176-61.5424 75.2128-23.808 30.0032-47.2576 60.3136-70.2976 90.88-15.5648 20.6848-30.3616 41.984-45.1584 63.2832-17.3056 24.9344-34.7648 49.8176-51.2512 75.3152-21.9648 33.8944-43.5712 68.0448-64.3072 102.7072-19.712 32.9216-38.4512 66.4064-57.0368 99.9936-11.3664 20.5824-22.2208 41.472-32.3072 62.72-11.8784 25.0368-22.6304 50.5856-33.8944 75.8784-0.0512 0.1536-0.256 0.256 0.3584-0.3072-8.6016-7.9872-17.152-15.9232-25.7024-23.9104-0.9728-0.8704-1.5872-2.0992-2.5088-3.0208-16.2816-16.6912-32.6656-33.3312-48.896-50.1248-18.8416-19.456-37.5808-39.0656-56.3712-58.5728-8.2432-8.6016-16.4864-17.2544-24.7296-25.856-19.1488-19.968-38.3488-39.8848-57.5488-59.8016-7.3216-7.6288-14.592-15.4112-21.9136-23.04-19.968-20.7872-39.9872-41.472-59.9552-62.2592-18.1248-18.8416-36.1984-37.7344-54.3232-56.576-18.3808-19.1488-36.7104-38.2976-55.1424-57.3952-7.168-7.4752-14.4896-14.848-21.7088-22.272 0.0512-1.1264 0.0512-2.2528 0.0512-3.3792z" p-id="3131" fill="#4aa48d"></path></svg>