<?xml version="1.0" standalone="no"?><!DOCTYPE svg PUBLIC "-//W3C//DTD SVG 1.1//EN" "http://www.w3.org/Graphics/SVG/1.1/DTD/svg11.dtd"><svg t="1623734637586" class="icon" viewBox="0 0 1024 1024" version="1.1" xmlns="http://www.w3.org/2000/svg" p-id="3989" xmlns:xlink="http://www.w3.org/1999/xlink" width="200" height="200"><defs><style type="text/css"></style></defs><path d="M120.637 269.03h782.761c29.773 0 54.042-24.16 54.042-53.99a53.883 53.883 0 0 0-54.047-53.99H120.637c-29.777 0-54.077 24.16-54.077 53.99 0 30.019 24.192 53.99 54.077 53.99z m0 296.96h782.761c29.773 0 54.047-24.16 54.047-53.985a53.883 53.883 0 0 0-54.047-53.995h-782.76c-29.778 0-54.078 24.16-54.078 53.99 0 30.019 24.192 53.99 54.077 53.99z m0 296.96h782.761c29.773 0 54.047-24.16 54.047-53.99a53.883 53.883 0 0 0-54.047-53.99h-782.76c-29.778 0-54.078 24.16-54.078 53.99 0 30.019 24.192 53.99 54.077 53.99z" p-id="3990" fill="#2c2c2c"></path></svg>