<?xml version="1.0" encoding="utf-8"?>
<!-- Generator: Adobe Illustrator 16.0.0, SVG Export Plug-In . SVG Version: 6.00 Build 0)  -->
<!DOCTYPE svg PUBLIC "-//W3C//DTD SVG 1.1//EN" "http://www.w3.org/Graphics/SVG/1.1/DTD/svg11.dtd">
<svg version="1.1" id="图层_1" xmlns="http://www.w3.org/2000/svg" xmlns:xlink="http://www.w3.org/1999/xlink" x="0px" y="0px"
	 width="350px" height="350px" viewBox="394 0 350 350" enable-background="new 394 0 350 350" xml:space="preserve">
<path fill="#FFFFFF" d="M702.985,29.053c6.596,0,11.963,5.366,11.963,11.963v267.969c0,6.597-5.367,11.963-11.963,11.963H435.016
	c-6.597,0-11.963-5.366-11.963-11.963V41.016c0-6.597,5.366-11.963,11.963-11.963H702.985 M702.985,0H435.016
	C412.355,0,394,18.354,394,41.016v267.969C394,331.646,412.355,350,435.016,350h267.969c22.66,0,41.016-18.354,41.016-41.016V41.016
	C744,18.354,725.645,0,702.985,0L702.985,0z"/>
<g>
	<path fill="#FFFFFF" d="M634.331,130.686c-8.038,0-15.166,1.719-21.099,5.065c-4.216,2.198-8.08,5.065-11.552,8.565V134.01h-29.895
		v128.757h29.895v-76.697c0.862-8.994,3.872-16.238,8.951-21.532c4.337-4.521,9.558-6.72,15.957-6.72
		c16.838,0,24.68,9.007,24.68,28.343v76.606h29.895v-78.743C681.163,148.631,665.406,130.686,634.331,130.686z"/>
	<polyline fill="#FFFFFF" points="488.319,158.703 488.319,115.315 563.08,115.315 563.08,87.233 456.837,87.233 456.837,262.767 
		567.03,262.767 567.03,234.685 488.319,234.685 488.319,186.785 557.455,186.785 557.455,158.858 	"/>
</g>
</svg>
