<?xml version="1.0" encoding="utf-8"?>
<!-- Generator: Adobe Illustrator 16.0.0, SVG Export Plug-In . SVG Version: 6.00 Build 0)  -->
<!DOCTYPE svg PUBLIC "-//W3C//DTD SVG 1.1//EN" "http://www.w3.org/Graphics/SVG/1.1/DTD/svg11.dtd">
<svg version="1.1" id="图层_1" xmlns="http://www.w3.org/2000/svg" xmlns:xlink="http://www.w3.org/1999/xlink" x="0px" y="0px"
	 width="350px" height="350px" viewBox="0 0 350 350" enable-background="new 0 0 350 350" xml:space="preserve">
<path d="M308.985,29.053c6.596,0,11.963,5.366,11.963,11.963v267.969c0,6.597-5.367,11.963-11.963,11.963H41.016
	c-6.597,0-11.963-5.366-11.963-11.963V41.016c0-6.597,5.366-11.963,11.963-11.963H308.985 M308.985,0H41.016
	C18.355,0,0,18.354,0,41.016v267.969C0,331.646,18.355,350,41.016,350h267.969c22.66,0,41.016-18.354,41.016-41.016V41.016
	C350,18.354,331.645,0,308.985,0L308.985,0z"/>
<g>
	<path d="M240.331,130.686c-8.038,0-15.166,1.719-21.099,5.065c-4.216,2.198-8.08,5.065-11.552,8.565V134.01h-29.895v128.757h29.895
		v-76.697c0.862-8.994,3.872-16.238,8.951-21.532c4.337-4.521,9.558-6.72,15.957-6.72c16.838,0,24.68,9.007,24.68,28.343v76.606
		h29.895v-78.743C287.163,148.631,271.406,130.686,240.331,130.686z"/>
	<polyline points="94.319,158.703 94.319,115.315 169.08,115.315 169.08,87.233 62.837,87.233 62.837,262.767 173.03,262.767 
		173.03,234.685 94.319,234.685 94.319,186.785 163.455,186.785 163.455,158.858 	"/>
</g>
</svg>
