<?xml version="1.0" encoding="utf-8"?>
<!-- Generator: Adobe Illustrator 16.0.0, SVG Export Plug-In . SVG Version: 6.00 Build 0)  -->
<!DOCTYPE svg PUBLIC "-//W3C//DTD SVG 1.1//EN" "http://www.w3.org/Graphics/SVG/1.1/DTD/svg11.dtd">
<svg version="1.1" id="图层_1" xmlns="http://www.w3.org/2000/svg" xmlns:xlink="http://www.w3.org/1999/xlink" x="0px" y="0px"
	 width="350px" height="350px" viewBox="394 384 350 350" enable-background="new 394 384 350 350" xml:space="preserve">
<path fill="#FFFFFF" d="M702.985,413.053c6.596,0,11.963,5.366,11.963,11.963v267.969c0,6.597-5.367,11.963-11.963,11.963H435.016
	c-6.597,0-11.963-5.366-11.963-11.963V425.016c0-6.597,5.366-11.963,11.963-11.963H702.985 M702.985,384H435.016
	C412.355,384,394,402.354,394,425.016v267.969C394,715.646,412.355,734,435.016,734h267.969c22.66,0,41.016-18.354,41.016-41.016
	V425.016C744,402.354,725.645,384,702.985,384L702.985,384z"/>
<g>
	<polygon fill="#FFFFFF" points="467.7,646.766 499.582,646.766 499.582,570.785 583.873,570.785 583.873,542.703 499.582,542.703 
		499.582,499.316 588.86,499.316 588.86,471.234 467.7,471.234 	"/>
	<path fill="#FFFFFF" d="M668.639,518.087c-4.523-2.257-10.326-3.401-17.247-3.401c-8.396,0-15.722,2.524-21.773,7.503
		c-2.589,1.852-4.941,4.097-7.044,6.719V518.01h-31.169v128.756h31.169v-68.059c0-10.2,2.828-18.059,8.646-24.023
		c5.478-5.622,11.454-8.355,18.271-8.355c5.841,0,11.538,0.835,16.933,2.482l3.876,1.184v-31.078L668.639,518.087z"/>
</g>
</svg>
