<?xml version="1.0" encoding="utf-8"?>
<!-- Generator: Adobe Illustrator 23.0.1, SVG Export Plug-In . SVG Version: 6.00 Build 0)  -->
<svg version="1.1" id="图层_1" xmlns="http://www.w3.org/2000/svg" xmlns:xlink="http://www.w3.org/1999/xlink" x="0px" y="0px"
	 viewBox="0 0 1024 1024" style="enable-background:new 0 0 1024 1024;" xml:space="preserve">
<style type="text/css">
	.st0{fill:#000000;}
</style>
<path class="st0" d="M904,85c19.3,0,35,15.7,35,35v784c0,19.3-15.7,35-35,35H120c-19.3,0-35-15.7-35-35V120c0-19.3,15.7-35,35-35
	H904 M904,0H120C53.7,0,0,53.7,0,120v784c0,66.3,53.7,120,120,120h784c66.3,0,120-53.7,120-120V120C1024,53.7,970.3,0,904,0L904,0z"
	/>
<g>
	<path class="st0" d="M749.4,638.7H560.3v142.9h-96.6V638.7H274.6V325.2h189.1v-82.7l96.6,2.3v80.4h189.1V638.7z M463.7,542.7V421.8
		h-96.6v120.9H463.7z M656.3,421.8h-96v120.9h96V421.8z"/>
</g>
</svg>
