<?xml version="1.0" encoding="utf-8"?>
<!-- Generator: Adobe Illustrator 16.0.0, SVG Export Plug-In . SVG Version: 6.00 Build 0)  -->
<!DOCTYPE svg PUBLIC "-//W3C//DTD SVG 1.1//EN" "http://www.w3.org/Graphics/SVG/1.1/DTD/svg11.dtd">
<svg version="1.1" id="图层_1" xmlns="http://www.w3.org/2000/svg" xmlns:xlink="http://www.w3.org/1999/xlink" x="0px" y="0px"
	 width="350px" height="350px" viewBox="0 384 350 350" enable-background="new 0 384 350 350" xml:space="preserve">
<path d="M308.985,413.053c6.596,0,11.963,5.366,11.963,11.963v267.969c0,6.597-5.367,11.963-11.963,11.963H41.016
	c-6.597,0-11.963-5.366-11.963-11.963V425.016c0-6.597,5.366-11.963,11.963-11.963H308.985 M308.985,384H41.016
	C18.355,384,0,402.354,0,425.016v267.969C0,715.646,18.355,734,41.016,734h267.969c22.66,0,41.016-18.354,41.016-41.016V425.016
	C350,402.354,331.645,384,308.985,384L308.985,384z"/>
<g>
	<polygon points="73.7,646.766 105.582,646.766 105.582,570.785 189.873,570.785 189.873,542.703 105.582,542.703 105.582,499.316 
		194.86,499.316 194.86,471.234 73.7,471.234 	"/>
	<path d="M274.639,518.087c-4.523-2.257-10.326-3.401-17.247-3.401c-8.396,0-15.722,2.524-21.773,7.503
		c-2.589,1.852-4.941,4.097-7.044,6.719V518.01h-31.169v128.756h31.169v-68.059c0-10.2,2.828-18.059,8.646-24.023
		c5.478-5.622,11.454-8.355,18.271-8.355c5.841,0,11.538,0.835,16.933,2.482l3.876,1.184v-31.078L274.639,518.087z"/>
</g>
</svg>
