<?xml version="1.0" standalone="no"?><!DOCTYPE svg PUBLIC "-//W3C//DTD SVG 1.1//EN" "http://www.w3.org/Graphics/SVG/1.1/DTD/svg11.dtd"><svg t="1623312549510" class="icon" viewBox="0 0 1024 1024" version="1.1" xmlns="http://www.w3.org/2000/svg" p-id="7426" xmlns:xlink="http://www.w3.org/1999/xlink" width="200" height="200"><defs><style type="text/css"></style></defs><path d="M877.7216 0A146.2528 146.2528 0 0 1 1024 146.2784v731.4432A146.2528 146.2528 0 0 1 877.7216 1024H146.2784A146.2528 146.2528 0 0 1 0 877.7216V146.2784A146.2528 146.2528 0 0 1 146.2784 0h731.4432z m-396.288 263.6544s-28.6208 28.544-82.0992 45.1328c-49.4336 19.5584-88.9344 21.5808-88.9344 21.5808-14.9504 1.8944-27.776 15.4368-28.032 30.6432v0.8448c-0.2304 8.5504-1.8688 81.2544 0.512 145.5616 0.9984 122.496 147.9168 243.5072 222.1824 243.5072 73.0368 0 199.424-84.3264 219.2384-241.7664 4.9408-93.312 1.664-148.1472 1.664-148.1472-0.4864-15.2064-13.2096-29.5424-28.2368-32.128 0 0-58.3936-9.088-91.136-20.608-40.96-14.4128-81.408-45.9264-81.408-45.9264-12.6464-8.9088-31.9744-8.3968-43.7504 1.28z m179.4048 144.768a22.9632 22.9632 0 0 1 0.768 30.6176l-2.0992 2.1504v-0.64l-171.3152 159.4368a23.3984 23.3984 0 0 1-28.4672 2.7136l-4.4544-3.7888-94.6688-97.024a23.04 23.04 0 0 1 1.4336-32.896 23.7824 23.7824 0 0 1 33.3824 1.408l77.7472 80.5888 154.2912-143.9744a23.7824 23.7824 0 0 1 33.3824 1.408z m-1.3312 32.768v0.0512-0.0512z" p-id="7427" fill="#4aa48d"></path></svg>